<svg xmlns="http://www.w3.org/2000/svg" viewBox="0 0 64 64" role="img" aria-label="Cupcake">
  <path fill="#FFFCF7" stroke="#2A2322" stroke-width="3" stroke-linejoin="round" d="M19 31h26l-3 24H22z"/>
  <path fill="#DCA1B6" stroke="#2A2322" stroke-width="3" stroke-linecap="round" stroke-linejoin="round" d="M17 30c0-5 4-8 8-8 1-7 13-10 17-2 5-1 9 3 8 8-1 4-5 5-9 4-4 4-10 2-12 0-5 3-12 2-12-2z"/>
  <path fill="none" stroke="#9F3E62" stroke-width="2.5" stroke-linecap="round" d="m27 39 1 10m8-10-1 10"/>
  <circle cx="26" cy="28" r="1.5" fill="#2A2322"/><circle cx="39" cy="28" r="1.5" fill="#2A2322"/>
  <path d="M29 32c2 2 5 2 7 0" fill="none" stroke="#2A2322" stroke-width="2" stroke-linecap="round"/>
  <circle cx="32" cy="11" r="5" fill="#9F3E62" stroke="#2A2322" stroke-width="3"/>
</svg>
